<svg width="16" height="16" viewBox="0 0 16 16" fill="none" xmlns="http://www.w3.org/2000/svg">
<path fill-rule="evenodd" clip-rule="evenodd" d="M5.28945 1.33325C5.30403 1.33325 5.31866 1.33326 5.33334 1.33326L10.7106 1.33325C11.3015 1.33322 11.8108 1.33319 12.2185 1.38802C12.6555 1.44677 13.0744 1.57927 13.4142 1.91904C13.754 2.25882 13.8865 2.67772 13.9452 3.11473C14.0001 3.5225 14 4.03172 14 4.62272L14 5.29992C14 5.66811 13.7015 5.96659 13.3333 5.96659C12.9651 5.96659 12.6667 5.66811 12.6667 5.29992V4.66659C12.6667 4.0192 12.6653 3.60073 12.6238 3.29239C12.5849 3.00323 12.5222 2.9126 12.4714 2.86185C12.4207 2.8111 12.33 2.74834 12.0409 2.70946C11.7325 2.668 11.3141 2.66659 10.6667 2.66659H8.66667V13.9999C8.66667 14.3681 8.36819 14.6666 8 14.6666C7.63181 14.6666 7.33334 14.3681 7.33334 13.9999V2.66659H5.33334C4.68595 2.66659 4.26748 2.668 3.95914 2.70946C3.66998 2.74834 3.57935 2.8111 3.5286 2.86185C3.47785 2.9126 3.41508 3.00323 3.37621 3.29239C3.33475 3.60073 3.33334 4.0192 3.33334 4.66659V5.29992C3.33334 5.66811 3.03486 5.96659 2.66667 5.96659C2.29848 5.96659 2 5.66811 2 5.29992V4.66659C2 4.65191 2 4.63728 2 4.6227C1.99997 4.03171 1.99994 3.5225 2.05476 3.11473C2.11352 2.67772 2.24601 2.25882 2.58579 1.91904C2.92556 1.57927 3.34446 1.44677 3.78148 1.38802C4.18925 1.33319 4.69846 1.33322 5.28945 1.33325Z" fill="#D0D5DD"/>
<path d="M4.66675 14H11.3334" stroke="#D0D5DD" stroke-width="2" stroke-linecap="round" stroke-linejoin="round"/>
</svg>
