<svg width="77" height="96" viewBox="0 0 77 96" fill="none" xmlns="http://www.w3.org/2000/svg">
<rect width="77" height="96" rx="8" fill="white"/>
<rect x="0.5" y="0.5" width="76" height="95" rx="7.5" stroke="#888888" stroke-opacity="0.25"/>
<rect x="8" y="13" width="26" height="5" rx="2.5" fill="#E6E6E6"/>
<rect x="8" y="50" width="17" height="5" rx="2.5" fill="#E6E6E6"/>
<rect x="51" y="13" width="17" height="5" rx="2.5" fill="#E6E6E6"/>
<rect x="8" y="21" width="60" height="5" rx="2" fill="#E6E6E6"/>
<rect x="8" y="58" width="60" height="5" rx="2" fill="#E6E6E6"/>
<rect x="8" y="29" width="60" height="5" rx="2" fill="#E6E6E6"/>
<rect x="8" y="66" width="60" height="5" rx="2" fill="#E6E6E6"/>
<rect x="8" y="37" width="60" height="5" rx="2" fill="#E6E6E6"/>
<rect x="8" y="74" width="60" height="5" rx="2" fill="#E6E6E6"/>
<rect x="8" y="82" width="45" height="5" rx="2" fill="#E6E6E6"/>
</svg>
