<svg width="16" height="16" viewBox="0 0 16 16" fill="none" xmlns="http://www.w3.org/2000/svg">
<g clip-path="url(#clip0_67_108)">
<path d="M3.15224 10.7578C2.12189 9.72749 1.60671 9.21231 1.41501 8.5439C1.22331 7.8755 1.38714 7.16558 1.71479 5.74575L1.90374 4.92697C2.1794 3.73246 2.31723 3.1352 2.72621 2.72621C3.1352 2.31723 3.73246 2.1794 4.92696 1.90375L5.74575 1.71479C7.16558 1.38714 7.8755 1.22331 8.5439 1.41501C9.21231 1.60671 9.72749 2.12189 10.7578 3.15224L11.9776 4.372C13.7703 6.16466 14.6666 7.06098 14.6666 8.1748C14.6666 9.28861 13.7703 10.1849 11.9776 11.9776C10.1849 13.7703 9.28861 14.6666 8.1748 14.6666C7.06098 14.6666 6.16466 13.7703 4.372 11.9776L3.15224 10.7578Z" stroke="#98A2B3"/>
<circle cx="5.73816" cy="5.91943" r="1.33333" transform="rotate(-45 5.73816 5.91943)" stroke="#98A2B3"/>
<path d="M7.6945 12.3333L12.3472 7.68042" stroke="#98A2B3" stroke-linecap="round"/>
</g>
<defs>
<clipPath id="clip0_67_108">
<rect width="16" height="16" fill="white"/>
</clipPath>
</defs>
</svg>
